<svg width="1200" height="900" viewBox="0 0 1200 900" fill="none" xmlns="http://www.w3.org/2000/svg">
<defs>
  <linearGradient id="g1" x1="0" y1="0" x2="1" y2="1">
    <stop offset="0%" stop-color="#10B981" stop-opacity="0.28"/>
    <stop offset="100%" stop-color="#0EA5E9" stop-opacity="0.22"/>
  </linearGradient>
  <pattern id="dots" x="0" y="0" width="24" height="24" patternUnits="userSpaceOnUse">
    <circle cx="4" cy="4" r="3" fill="#ECFDF3" opacity="0.6"/>
  </pattern>
</defs>
<rect width="1200" height="900" rx="40" fill="url(#g1)"/>
<rect x="60" y="60" width="1080" height="780" rx="32" fill="url(#dots)" opacity="0.5"/>
<g stroke="#10B981" stroke-width="3" stroke-linecap="round">
  <path d="M180 720C260 640 420 620 520 520C640 400 840 420 980 300" stroke="#34D399" stroke-width="6" opacity="0.6"/>
  <path d="M200 260C320 220 520 280 660 220C780 170 940 180 1020 240" stroke="#0EA5E9" stroke-width="4" opacity="0.7"/>
</g>
<g fill="#10B981">
  <circle cx="220" cy="700" r="12"/>
  <circle cx="520" cy="520" r="12"/>
  <circle cx="820" cy="380" r="12"/>
  <circle cx="1030" cy="280" r="12"/>
</g>
<g stroke="#0EA5E9" stroke-width="5">
  <rect x="310" y="170" width="80" height="60" rx="12" opacity="0.6"/>
  <rect x="640" y="480" width="100" height="70" rx="12" opacity="0.6"/>
  <rect x="900" y="220" width="110" height="80" rx="12" opacity="0.6"/>
</g>
<text x="200" y="160" fill="#0F172A" font-size="32" font-weight="bold" opacity="0.55">TOMOSHIBI MAP</text>
<text x="200" y="200" fill="#0F172A" font-size="18" opacity="0.55">City puzzle trail × Social missions</text>
</svg>
