<svg width="1200" height="800" viewBox="0 0 1200 800" fill="none" xmlns="http://www.w3.org/2000/svg">
<defs>
  <linearGradient id="qp1" x1="0" y1="0" x2="1" y2="1">
    <stop offset="0%" stop-color="#0EA5E9" stop-opacity="0.25"/>
    <stop offset="100%" stop-color="#10B981" stop-opacity="0.35"/>
  </linearGradient>
</defs>
<rect width="1200" height="800" rx="40" fill="#0B172A"/>
<rect x="24" y="24" width="1152" height="752" rx="32" fill="url(#qp1)"/>
<rect x="64" y="64" width="300" height="200" rx="24" fill="#FBBF24" fill-opacity="0.9"/>
<rect x="96" y="96" width="236" height="136" rx="18" fill="#0F172A" fill-opacity="0.9"/>
<rect x="400" y="98" width="680" height="42" rx="12" fill="#F8FAFC" fill-opacity="0.9"/>
<rect x="400" y="158" width="440" height="28" rx="10" fill="#0EA5E9" fill-opacity="0.6"/>
<rect x="400" y="202" width="520" height="28" rx="10" fill="#10B981" fill-opacity="0.55"/>
<path d="M180 620C280 520 480 500 620 400C760 300 940 260 1080 320" stroke="#FBBF24" stroke-width="16" stroke-linecap="round" opacity="0.7"/>
<path d="M220 660C360 540 520 540 720 460C880 400 1040 420 1120 480" stroke="#34D399" stroke-width="10" stroke-linecap="round" opacity="0.7"/>
<g fill="#F8FAFC" opacity="0.9">
  <rect x="160" y="360" width="220" height="26" rx="10"/>
  <rect x="160" y="400" width="280" height="26" rx="10"/>
  <rect x="160" y="440" width="180" height="26" rx="10"/>
</g>
<circle cx="1020" cy="640" r="48" fill="#0F172A" opacity="0.75"/>
<text x="170" y="310" fill="#F8FAFC" font-size="26" font-weight="700" opacity="0.9">Adventure Route</text>
<text x="920" y="650" fill="#F8FAFC" font-size="18" font-weight="700">SPR Detective</text>
</svg>
